<svg xmlns="http://www.w3.org/2000/svg" viewBox="368 105.75 1344 1008" width="1600" height="1200" role="img" preserveAspectRatio="xMidYMid slice">
<defs><linearGradient id="sky" x1="0" y1="0" x2="0" y2="1">
<stop offset="0" stop-color="#e1e8e7"/><stop offset="1" stop-color="#c9d9cd"/>
</linearGradient></defs>
<rect x="-200" y="-200" width="2000" height="1600" fill="url(#sky)"/><ellipse cx="992" cy="700" rx="700" ry="330" fill="#d7e5da" opacity="0.5"/><rect x="-200" y="840" width="2000" height="560" fill="#94ab99"/><rect x="-200" y="958" width="2000" height="92" fill="#adbcb0" opacity="0.75"/><line x1="-200" y1="958" x2="1800" y2="958" stroke="#3f5a55" stroke-width="2" opacity="0.2"/><line x1="-200" y1="1050" x2="1800" y2="1050" stroke="#3f5a55" stroke-width="2" opacity="0.2"/><g opacity="0.15" stroke="#3f5a55" stroke-width="1.4">
    <line x1="-300" y1="-200" x2="-300" y2="1400"/><line x1="-200" y1="-200" x2="-200" y2="1400"/><line x1="-100" y1="-200" x2="-100" y2="1400"/><line x1="0" y1="-200" x2="0" y2="1400"/><line x1="100" y1="-200" x2="100" y2="1400"/><line x1="200" y1="-200" x2="200" y2="1400"/><line x1="300" y1="-200" x2="300" y2="1400"/><line x1="400" y1="-200" x2="400" y2="1400"/><line x1="500" y1="-200" x2="500" y2="1400"/><line x1="600" y1="-200" x2="600" y2="1400"/><line x1="700" y1="-200" x2="700" y2="1400"/><line x1="800" y1="-200" x2="800" y2="1400"/><line x1="900" y1="-200" x2="900" y2="1400"/><line x1="1000" y1="-200" x2="1000" y2="1400"/><line x1="1100" y1="-200" x2="1100" y2="1400"/><line x1="1200" y1="-200" x2="1200" y2="1400"/><line x1="1300" y1="-200" x2="1300" y2="1400"/><line x1="1400" y1="-200" x2="1400" y2="1400"/><line x1="1500" y1="-200" x2="1500" y2="1400"/><line x1="1600" y1="-200" x2="1600" y2="1400"/><line x1="1700" y1="-200" x2="1700" y2="1400"/><line x1="1800" y1="-200" x2="1800" y2="1400"/><line x1="1900" y1="-200" x2="1900" y2="1400"/>
    <line x1="-200" y1="-200" x2="1800" y2="-200"/><line x1="-200" y1="-100" x2="1800" y2="-100"/><line x1="-200" y1="0" x2="1800" y2="0"/><line x1="-200" y1="100" x2="1800" y2="100"/><line x1="-200" y1="200" x2="1800" y2="200"/><line x1="-200" y1="300" x2="1800" y2="300"/><line x1="-200" y1="400" x2="1800" y2="400"/><line x1="-200" y1="500" x2="1800" y2="500"/><line x1="-200" y1="600" x2="1800" y2="600"/><line x1="-200" y1="700" x2="1800" y2="700"/><line x1="-200" y1="800" x2="1800" y2="800"/><line x1="-200" y1="900" x2="1800" y2="900"/><line x1="-200" y1="1000" x2="1800" y2="1000"/><line x1="-200" y1="1100" x2="1800" y2="1100"/><line x1="-200" y1="1200" x2="1800" y2="1200"/><line x1="-200" y1="1300" x2="1800" y2="1300"/><line x1="-200" y1="1400" x2="1800" y2="1400"/>
  </g><path d="M 1479.19 840 Q 1493.56 699.36 1506.84 584.29 L 1516.08 584.29 Q 1507 699.36 1495.99 840 Z" fill="#29423d" opacity="0.9"/><path d="M 1511.46 584.29 Q 1415.61 564.3 1337.18 616.68 Q 1415.61 581.48 1511.46 592.88 Z" fill="#29423d" opacity="0.82"/><path d="M 1511.46 584.29 Q 1432.12 551 1367.21 577.56 Q 1432.12 568.27 1511.46 592.93 Z" fill="#29423d" opacity="0.82"/><path d="M 1511.46 584.29 Q 1466.7 541.58 1430.08 549.85 Q 1466.7 559.13 1511.46 593.06 Z" fill="#29423d" opacity="0.82"/><path d="M 1511.46 584.29 Q 1511.46 538.18 1511.46 539.86 Q 1511.46 554.36 1511.46 592.38 Z" fill="#29423d" opacity="0.82"/><path d="M 1511.46 584.29 Q 1556.23 541.58 1592.85 549.85 Q 1556.23 562.56 1511.46 594.78 Z" fill="#29423d" opacity="0.82"/><path d="M 1511.46 584.29 Q 1590.8 551 1655.72 577.56 Q 1590.8 570.89 1511.46 594.23 Z" fill="#29423d" opacity="0.82"/><path d="M 1511.46 584.29 Q 1607.32 564.3 1685.75 616.68 Q 1607.32 579.89 1511.46 592.08 Z" fill="#29423d" opacity="0.82"/><ellipse cx="1511.46" cy="590.29" rx="16" ry="12" fill="#29423d"/><ellipse cx="800" cy="848" rx="684.4" ry="22" fill="#29423d" opacity="0.16"/><rect x="210" y="225" width="1180" height="615" fill="#72958d"/><rect x="236" y="267" width="144.67" height="119" fill="#b5d4d2" opacity="0.9"/><rect x="236" y="267" width="144.67" height="10" fill="#29423d" opacity="0.28"/><rect x="432.67" y="267" width="144.67" height="119" fill="#b5d4d2" opacity="0.9"/><rect x="432.67" y="267" width="144.67" height="10" fill="#29423d" opacity="0.28"/><rect x="629.33" y="267" width="144.67" height="119" fill="#b5d4d2" opacity="0.9"/><rect x="629.33" y="267" width="144.67" height="10" fill="#29423d" opacity="0.28"/><rect x="826" y="267" width="144.67" height="119" fill="#b5d4d2" opacity="0.9"/><rect x="826" y="267" width="144.67" height="10" fill="#29423d" opacity="0.28"/><rect x="1022.67" y="267" width="144.67" height="119" fill="#b5d4d2" opacity="0.9"/><rect x="1022.67" y="267" width="144.67" height="10" fill="#29423d" opacity="0.28"/><rect x="1219.33" y="267" width="144.67" height="119" fill="#b5d4d2" opacity="0.9"/><rect x="1219.33" y="267" width="144.67" height="10" fill="#29423d" opacity="0.28"/><rect x="210" y="225" width="1180" height="14" fill="#29423d" opacity="0.33"/><rect x="236" y="472" width="144.67" height="119" fill="#b5d4d2" opacity="0.9"/><rect x="236" y="472" width="144.67" height="10" fill="#29423d" opacity="0.28"/><rect x="432.67" y="472" width="144.67" height="119" fill="#b5d4d2" opacity="0.9"/><rect x="432.67" y="472" width="144.67" height="10" fill="#29423d" opacity="0.28"/><rect x="629.33" y="472" width="144.67" height="119" fill="#b5d4d2" opacity="0.9"/><rect x="629.33" y="472" width="144.67" height="10" fill="#29423d" opacity="0.28"/><rect x="826" y="472" width="144.67" height="119" fill="#b5d4d2" opacity="0.9"/><rect x="826" y="472" width="144.67" height="10" fill="#29423d" opacity="0.28"/><rect x="1022.67" y="472" width="144.67" height="119" fill="#b5d4d2" opacity="0.9"/><rect x="1022.67" y="472" width="144.67" height="10" fill="#29423d" opacity="0.28"/><rect x="1219.33" y="472" width="144.67" height="119" fill="#b5d4d2" opacity="0.9"/><rect x="1219.33" y="472" width="144.67" height="10" fill="#29423d" opacity="0.28"/><rect x="210" y="430" width="1180" height="14" fill="#29423d" opacity="0.33"/><rect x="236" y="677" width="144.67" height="119" fill="#29423d" opacity="0.9"/><rect x="236" y="677" width="144.67" height="10" fill="#29423d" opacity="0.28"/><rect x="432.67" y="677" width="144.67" height="119" fill="#29423d" opacity="0.9"/><rect x="432.67" y="677" width="144.67" height="10" fill="#29423d" opacity="0.28"/><rect x="629.33" y="677" width="144.67" height="119" fill="#29423d" opacity="0.9"/><rect x="629.33" y="677" width="144.67" height="10" fill="#29423d" opacity="0.28"/><rect x="826" y="677" width="144.67" height="119" fill="#29423d" opacity="0.9"/><rect x="826" y="677" width="144.67" height="10" fill="#29423d" opacity="0.28"/><rect x="1022.67" y="677" width="144.67" height="119" fill="#29423d" opacity="0.9"/><rect x="1022.67" y="677" width="144.67" height="10" fill="#29423d" opacity="0.28"/><rect x="1219.33" y="677" width="144.67" height="119" fill="#29423d" opacity="0.9"/><rect x="1219.33" y="677" width="144.67" height="10" fill="#29423d" opacity="0.28"/><rect x="210" y="635" width="1180" height="14" fill="#29423d" opacity="0.33"/><rect x="202" y="225" width="16" height="615" fill="#4a6962"/><rect x="398.67" y="225" width="16" height="615" fill="#4a6962"/><rect x="595.33" y="225" width="16" height="615" fill="#4a6962"/><rect x="792" y="225" width="16" height="615" fill="#4a6962"/><rect x="988.67" y="225" width="16" height="615" fill="#4a6962"/><rect x="1185.33" y="225" width="16" height="615" fill="#4a6962"/><rect x="1382" y="225" width="16" height="615" fill="#4a6962"/><rect x="180" y="177" width="1240" height="48" fill="#4a6962"/><rect x="270" y="185" width="1060" height="34" fill="#29423d" opacity="0.5"/><rect x="164" y="649" width="1272" height="20" fill="#29423d"/><polygon points="164,669 1436,669 1398,735 202,735" fill="#4a6962" opacity="0.72"/><rect x="-200" y="840" width="2000" height="10" fill="#29423d" opacity="0.32"/>
<rect x="396.56" y="134.31" width="1286.88" height="950.88" fill="none" stroke="#f4f2ec" stroke-width="2.52" opacity="0.6"/>
</svg>