<svg xmlns="http://www.w3.org/2000/svg" viewBox="0 -98.25 1600 1200" width="1600" height="1200" role="img" preserveAspectRatio="xMidYMid slice">
<defs><linearGradient id="sky" x1="0" y1="0" x2="0" y2="1">
<stop offset="0" stop-color="#dce4e3"/><stop offset="1" stop-color="#c3d5c7"/>
</linearGradient></defs>
<rect x="-200" y="-200" width="2000" height="1600" fill="url(#sky)"/><ellipse cx="992" cy="700" rx="700" ry="330" fill="#d7e5da" opacity="0.5"/><rect x="-200" y="840" width="2000" height="560" fill="#98ae9d"/><rect x="-200" y="958" width="2000" height="92" fill="#b0bfb4" opacity="0.75"/><line x1="-200" y1="958" x2="1800" y2="958" stroke="#3f5a55" stroke-width="2" opacity="0.2"/><line x1="-200" y1="1050" x2="1800" y2="1050" stroke="#3f5a55" stroke-width="2" opacity="0.2"/><g opacity="0.15" stroke="#3f5a55" stroke-width="1.4">
    <line x1="-300" y1="-200" x2="-300" y2="1400"/><line x1="-200" y1="-200" x2="-200" y2="1400"/><line x1="-100" y1="-200" x2="-100" y2="1400"/><line x1="0" y1="-200" x2="0" y2="1400"/><line x1="100" y1="-200" x2="100" y2="1400"/><line x1="200" y1="-200" x2="200" y2="1400"/><line x1="300" y1="-200" x2="300" y2="1400"/><line x1="400" y1="-200" x2="400" y2="1400"/><line x1="500" y1="-200" x2="500" y2="1400"/><line x1="600" y1="-200" x2="600" y2="1400"/><line x1="700" y1="-200" x2="700" y2="1400"/><line x1="800" y1="-200" x2="800" y2="1400"/><line x1="900" y1="-200" x2="900" y2="1400"/><line x1="1000" y1="-200" x2="1000" y2="1400"/><line x1="1100" y1="-200" x2="1100" y2="1400"/><line x1="1200" y1="-200" x2="1200" y2="1400"/><line x1="1300" y1="-200" x2="1300" y2="1400"/><line x1="1400" y1="-200" x2="1400" y2="1400"/><line x1="1500" y1="-200" x2="1500" y2="1400"/><line x1="1600" y1="-200" x2="1600" y2="1400"/><line x1="1700" y1="-200" x2="1700" y2="1400"/><line x1="1800" y1="-200" x2="1800" y2="1400"/><line x1="1900" y1="-200" x2="1900" y2="1400"/>
    <line x1="-200" y1="-200" x2="1800" y2="-200"/><line x1="-200" y1="-100" x2="1800" y2="-100"/><line x1="-200" y1="0" x2="1800" y2="0"/><line x1="-200" y1="100" x2="1800" y2="100"/><line x1="-200" y1="200" x2="1800" y2="200"/><line x1="-200" y1="300" x2="1800" y2="300"/><line x1="-200" y1="400" x2="1800" y2="400"/><line x1="-200" y1="500" x2="1800" y2="500"/><line x1="-200" y1="600" x2="1800" y2="600"/><line x1="-200" y1="700" x2="1800" y2="700"/><line x1="-200" y1="800" x2="1800" y2="800"/><line x1="-200" y1="900" x2="1800" y2="900"/><line x1="-200" y1="1000" x2="1800" y2="1000"/><line x1="-200" y1="1100" x2="1800" y2="1100"/><line x1="-200" y1="1200" x2="1800" y2="1200"/><line x1="-200" y1="1300" x2="1800" y2="1300"/><line x1="-200" y1="1400" x2="1800" y2="1400"/>
  </g><path d="M 1470.7 840 Q 1490.65 667.6 1508.52 526.55 L 1521.52 526.55 Q 1509.56 667.6 1494.34 840 Z" fill="#29423d" opacity="0.9"/><path d="M 1515.02 526.55 Q 1414.92 505.67 1333.01 560.37 Q 1414.92 521.99 1515.02 534.7 Z" fill="#29423d" opacity="0.82"/><path d="M 1515.02 526.55 Q 1432.17 491.78 1364.38 519.52 Q 1432.17 510.45 1515.02 535.88 Z" fill="#29423d" opacity="0.82"/><path d="M 1515.02 526.55 Q 1468.27 481.94 1430.03 490.58 Q 1468.27 498.44 1515.02 534.79 Z" fill="#29423d" opacity="0.82"/><path d="M 1515.02 526.55 Q 1515.02 478.39 1515.02 480.14 Q 1515.02 498.27 1515.02 536.48 Z" fill="#29423d" opacity="0.82"/><path d="M 1515.02 526.55 Q 1561.77 481.94 1600.02 490.58 Q 1561.77 497.27 1515.02 534.21 Z" fill="#29423d" opacity="0.82"/><path d="M 1515.02 526.55 Q 1597.88 491.78 1665.67 519.52 Q 1597.88 511.1 1515.02 536.2 Z" fill="#29423d" opacity="0.82"/><path d="M 1515.02 526.55 Q 1615.13 505.67 1697.03 560.37 Q 1615.13 522.15 1515.02 534.79 Z" fill="#29423d" opacity="0.82"/><ellipse cx="1515.02" cy="532.55" rx="16" ry="12" fill="#29423d"/><ellipse cx="800" cy="848" rx="684.4" ry="22" fill="#29423d" opacity="0.16"/><rect x="210" y="225" width="1180" height="615" fill="#799a93"/><rect x="236" y="267" width="243" height="119" fill="#b5d4d2" opacity="0.9"/><rect x="236" y="267" width="243" height="10" fill="#29423d" opacity="0.28"/><rect x="531" y="267" width="243" height="119" fill="#b5d4d2" opacity="0.9"/><rect x="531" y="267" width="243" height="10" fill="#29423d" opacity="0.28"/><rect x="826" y="267" width="243" height="119" fill="#b5d4d2" opacity="0.9"/><rect x="826" y="267" width="243" height="10" fill="#29423d" opacity="0.28"/><rect x="1121" y="267" width="243" height="119" fill="#b5d4d2" opacity="0.9"/><rect x="1121" y="267" width="243" height="10" fill="#29423d" opacity="0.28"/><rect x="210" y="225" width="1180" height="14" fill="#29423d" opacity="0.33"/><rect x="236" y="472" width="243" height="119" fill="#b5d4d2" opacity="0.9"/><rect x="236" y="472" width="243" height="10" fill="#29423d" opacity="0.28"/><rect x="531" y="472" width="243" height="119" fill="#b5d4d2" opacity="0.9"/><rect x="531" y="472" width="243" height="10" fill="#29423d" opacity="0.28"/><rect x="826" y="472" width="243" height="119" fill="#b5d4d2" opacity="0.9"/><rect x="826" y="472" width="243" height="10" fill="#29423d" opacity="0.28"/><rect x="1121" y="472" width="243" height="119" fill="#b5d4d2" opacity="0.9"/><rect x="1121" y="472" width="243" height="10" fill="#29423d" opacity="0.28"/><rect x="210" y="430" width="1180" height="14" fill="#29423d" opacity="0.33"/><rect x="236" y="677" width="243" height="119" fill="#29423d" opacity="0.9"/><rect x="236" y="677" width="243" height="10" fill="#29423d" opacity="0.28"/><rect x="531" y="677" width="243" height="119" fill="#29423d" opacity="0.9"/><rect x="531" y="677" width="243" height="10" fill="#29423d" opacity="0.28"/><rect x="826" y="677" width="243" height="119" fill="#29423d" opacity="0.9"/><rect x="826" y="677" width="243" height="10" fill="#29423d" opacity="0.28"/><rect x="1121" y="677" width="243" height="119" fill="#29423d" opacity="0.9"/><rect x="1121" y="677" width="243" height="10" fill="#29423d" opacity="0.28"/><rect x="210" y="635" width="1180" height="14" fill="#29423d" opacity="0.33"/><rect x="202" y="225" width="16" height="615" fill="#4e6e68"/><rect x="497" y="225" width="16" height="615" fill="#4e6e68"/><rect x="792" y="225" width="16" height="615" fill="#4e6e68"/><rect x="1087" y="225" width="16" height="615" fill="#4e6e68"/><rect x="1382" y="225" width="16" height="615" fill="#4e6e68"/><rect x="180" y="177" width="1240" height="48" fill="#4e6e68"/><rect x="270" y="185" width="1060" height="34" fill="#29423d" opacity="0.5"/><rect x="164" y="649" width="1272" height="20" fill="#29423d"/><polygon points="164,669 1436,669 1398,735 202,735" fill="#4e6e68" opacity="0.72"/><rect x="-200" y="840" width="2000" height="10" fill="#29423d" opacity="0.32"/>
<rect x="34" y="-64.25" width="1532" height="1132" fill="none" stroke="#f4f2ec" stroke-width="3" opacity="0.6"/>
</svg>