<svg xmlns="http://www.w3.org/2000/svg" viewBox="0 120 1600 1200" width="1600" height="1200" role="img" preserveAspectRatio="xMidYMid slice">
<defs><linearGradient id="sky" x1="0" y1="0" x2="0" y2="1">
<stop offset="0" stop-color="#dce4e3"/><stop offset="1" stop-color="#c3d5c8"/>
</linearGradient></defs>
<rect x="-200" y="-200" width="2000" height="1600" fill="url(#sky)"/><ellipse cx="992" cy="380" rx="700" ry="330" fill="#d7e5db" opacity="0.5"/><rect x="-200" y="520" width="2000" height="880" fill="#98ae9e"/><rect x="-200" y="638" width="2000" height="92" fill="#b0bfb5" opacity="0.75"/><line x1="-200" y1="638" x2="1800" y2="638" stroke="#3f5a56" stroke-width="2" opacity="0.2"/><line x1="-200" y1="730" x2="1800" y2="730" stroke="#3f5a56" stroke-width="2" opacity="0.2"/><g opacity="0.15" stroke="#3f5a56" stroke-width="1.4">
    <line x1="-300" y1="-200" x2="-300" y2="1400"/><line x1="-200" y1="-200" x2="-200" y2="1400"/><line x1="-100" y1="-200" x2="-100" y2="1400"/><line x1="0" y1="-200" x2="0" y2="1400"/><line x1="100" y1="-200" x2="100" y2="1400"/><line x1="200" y1="-200" x2="200" y2="1400"/><line x1="300" y1="-200" x2="300" y2="1400"/><line x1="400" y1="-200" x2="400" y2="1400"/><line x1="500" y1="-200" x2="500" y2="1400"/><line x1="600" y1="-200" x2="600" y2="1400"/><line x1="700" y1="-200" x2="700" y2="1400"/><line x1="800" y1="-200" x2="800" y2="1400"/><line x1="900" y1="-200" x2="900" y2="1400"/><line x1="1000" y1="-200" x2="1000" y2="1400"/><line x1="1100" y1="-200" x2="1100" y2="1400"/><line x1="1200" y1="-200" x2="1200" y2="1400"/><line x1="1300" y1="-200" x2="1300" y2="1400"/><line x1="1400" y1="-200" x2="1400" y2="1400"/><line x1="1500" y1="-200" x2="1500" y2="1400"/><line x1="1600" y1="-200" x2="1600" y2="1400"/><line x1="1700" y1="-200" x2="1700" y2="1400"/><line x1="1800" y1="-200" x2="1800" y2="1400"/><line x1="1900" y1="-200" x2="1900" y2="1400"/>
    <line x1="-200" y1="-200" x2="1800" y2="-200"/><line x1="-200" y1="-100" x2="1800" y2="-100"/><line x1="-200" y1="0" x2="1800" y2="0"/><line x1="-200" y1="100" x2="1800" y2="100"/><line x1="-200" y1="200" x2="1800" y2="200"/><line x1="-200" y1="300" x2="1800" y2="300"/><line x1="-200" y1="400" x2="1800" y2="400"/><line x1="-200" y1="500" x2="1800" y2="500"/><line x1="-200" y1="600" x2="1800" y2="600"/><line x1="-200" y1="700" x2="1800" y2="700"/><line x1="-200" y1="800" x2="1800" y2="800"/><line x1="-200" y1="900" x2="1800" y2="900"/><line x1="-200" y1="1000" x2="1800" y2="1000"/><line x1="-200" y1="1100" x2="1800" y2="1100"/><line x1="-200" y1="1200" x2="1800" y2="1200"/><line x1="-200" y1="1300" x2="1800" y2="1300"/><line x1="-200" y1="1400" x2="1800" y2="1400"/>
  </g><path d="M -240 520 L 300 382 L 660 470 L 1040 354 L 1380 456 L 1840 408 L 1840 520 Z" fill="#aabbb8" opacity="0.9"/><path d="M 125.38 560 Q 142.52 420.37 158.94 306.13 L 169.79 306.13 Q 158.31 420.37 145.11 560 Z" fill="#29423e" opacity="0.9"/><path d="M 164.36 306.13 Q 70.73 286.61 -5.88 337.77 Q 70.73 304.29 164.36 314.97 Z" fill="#29423e" opacity="0.82"/><path d="M 164.36 306.13 Q 86.86 273.62 23.46 299.56 Q 86.86 291.34 164.36 315 Z" fill="#29423e" opacity="0.82"/><path d="M 164.36 306.13 Q 120.64 264.41 84.86 272.49 Q 120.64 279.99 164.36 313.92 Z" fill="#29423e" opacity="0.82"/><path d="M 164.36 306.13 Q 164.36 261.09 164.36 262.73 Q 164.36 278.73 164.36 314.95 Z" fill="#29423e" opacity="0.82"/><path d="M 164.36 306.13 Q 208.09 264.41 243.86 272.49 Q 208.09 283.37 164.36 315.61 Z" fill="#29423e" opacity="0.82"/><path d="M 164.36 306.13 Q 241.86 273.62 305.27 299.56 Q 241.86 290.1 164.36 314.37 Z" fill="#29423e" opacity="0.82"/><path d="M 164.36 306.13 Q 258 286.61 334.61 337.77 Q 258 302.92 164.36 314.29 Z" fill="#29423e" opacity="0.82"/><ellipse cx="164.36" cy="312.13" rx="16" ry="12" fill="#29423e"/><path d="M 194.7 560 Q 200.5 372.42 179.55 218.95 L 191.43 218.95 Q 217.78 372.42 216.3 560 Z" fill="#29423e" opacity="0.9"/><path d="M 185.49 218.95 Q 82.67 197.51 -1.45 253.69 Q 82.67 215.71 185.49 228.05 Z" fill="#29423e" opacity="0.82"/><path d="M 185.49 218.95 Q 100.39 183.24 30.76 211.73 Q 100.39 200.9 185.49 227.78 Z" fill="#29423e" opacity="0.82"/><path d="M 185.49 218.95 Q 137.48 173.14 98.19 182.01 Q 137.48 192.99 185.49 228.87 Z" fill="#29423e" opacity="0.82"/><path d="M 185.49 218.95 Q 185.49 169.49 185.49 171.29 Q 185.49 185.52 185.49 226.96 Z" fill="#29423e" opacity="0.82"/><path d="M 185.49 218.95 Q 233.5 173.14 272.79 182.01 Q 233.5 192.11 185.49 228.43 Z" fill="#29423e" opacity="0.82"/><path d="M 185.49 218.95 Q 270.59 183.24 340.21 211.73 Q 270.59 201.07 185.49 227.86 Z" fill="#29423e" opacity="0.82"/><path d="M 185.49 218.95 Q 288.31 197.51 372.43 253.69 Q 288.31 212.69 185.49 226.54 Z" fill="#29423e" opacity="0.82"/><ellipse cx="185.49" cy="224.95" rx="16" ry="12" fill="#29423e"/><path d="M -184 520 Q 800 485.06 1784 520 L 1840 1400 L -240 1400 Z" fill="#aabbb8"/><path d="M -184 520 Q 800 485.06 1784 520" fill="none" stroke="#29423e" stroke-width="3" opacity="0.26"/><path d="M -193.33 622 Q 800 573.78 1793.33 622 L 1840 1400 L -240 1400 Z" fill="#aabbb8"/><path d="M -193.33 622 Q 800 573.78 1793.33 622" fill="none" stroke="#29423e" stroke-width="3" opacity="0.26"/><path d="M -202.67 724 Q 800 679.71 1802.67 724 L 1840 1400 L -240 1400 Z" fill="#98ae9e"/><path d="M -202.67 724 Q 800 679.71 1802.67 724" fill="none" stroke="#29423e" stroke-width="3" opacity="0.26"/><path d="M -172 740.66 Q 800 709.66 1772 740.66" fill="none" stroke="#29423e" stroke-width="1.6" opacity="0.13"/><path d="M -172 757.32 Q 800 726.32 1772 757.32" fill="none" stroke="#29423e" stroke-width="1.6" opacity="0.13"/><path d="M -172 773.98 Q 800 742.98 1772 773.98" fill="none" stroke="#29423e" stroke-width="1.6" opacity="0.13"/><path d="M -172 790.64 Q 800 759.64 1772 790.64" fill="none" stroke="#29423e" stroke-width="1.6" opacity="0.13"/><path d="M -212 826 Q 800 785.89 1812 826 L 1840 1400 L -240 1400 Z" fill="#98ae9e"/><path d="M -212 826 Q 800 785.89 1812 826" fill="none" stroke="#29423e" stroke-width="3" opacity="0.26"/><path d="M -179 843.45 Q 800 815.38 1779 843.45" fill="none" stroke="#29423e" stroke-width="1.6" opacity="0.13"/><path d="M -179 860.91 Q 800 832.83 1779 860.91" fill="none" stroke="#29423e" stroke-width="1.6" opacity="0.13"/><path d="M -179 878.36 Q 800 850.28 1779 878.36" fill="none" stroke="#29423e" stroke-width="1.6" opacity="0.13"/><path d="M -179 895.81 Q 800 867.74 1779 895.81" fill="none" stroke="#29423e" stroke-width="1.6" opacity="0.13"/><path d="M -221.33 928 Q 800 888.68 1821.33 928 L 1840 1400 L -240 1400 Z" fill="#799a95"/><path d="M -221.33 928 Q 800 888.68 1821.33 928" fill="none" stroke="#29423e" stroke-width="3" opacity="0.26"/><path d="M -186 947.04 Q 800 919.52 1786 947.04" fill="none" stroke="#29423e" stroke-width="1.6" opacity="0.13"/><path d="M -186 966.08 Q 800 938.56 1786 966.08" fill="none" stroke="#29423e" stroke-width="1.6" opacity="0.13"/><path d="M -186 985.12 Q 800 957.6 1786 985.12" fill="none" stroke="#29423e" stroke-width="1.6" opacity="0.13"/><path d="M -186 1004.16 Q 800 976.64 1786 1004.16" fill="none" stroke="#29423e" stroke-width="1.6" opacity="0.13"/><path d="M -230.67 1030 Q 800 974.29 1830.67 1030 L 1840 1400 L -240 1400 Z" fill="#799a95"/><path d="M -230.67 1030 Q 800 974.29 1830.67 1030" fill="none" stroke="#29423e" stroke-width="3" opacity="0.26"/><path d="M -193 1053.8 Q 800 1014.81 1793 1053.8" fill="none" stroke="#29423e" stroke-width="1.6" opacity="0.13"/><path d="M -193 1077.6 Q 800 1038.61 1793 1077.6" fill="none" stroke="#29423e" stroke-width="1.6" opacity="0.13"/><path d="M -193 1101.4 Q 800 1062.41 1793 1101.4" fill="none" stroke="#29423e" stroke-width="1.6" opacity="0.13"/><path d="M -193 1125.2 Q 800 1086.21 1793 1125.2" fill="none" stroke="#29423e" stroke-width="1.6" opacity="0.13"/><rect x="1103.88" y="630" width="12" height="230" fill="#29423e"/><rect x="1057.88" y="630" width="104" height="12" fill="#29423e"/><rect x="1079.88" y="674" width="60" height="10" fill="#29423e" opacity="0.75"/><circle cx="1109.8815415799618" cy="608" r="13" fill="#29423e"/><ellipse cx="1109.8815415799618" cy="866" rx="42" ry="12" fill="#29423e" opacity="0.18"/><path d="M 274 610 L 170 610 L 170 714" fill="none" stroke="#f4f2ec" stroke-width="7" stroke-linecap="square" opacity="0.9"/><path d="M 1326 610 L 1430 610 L 1430 714" fill="none" stroke="#f4f2ec" stroke-width="7" stroke-linecap="square" opacity="0.9"/><path d="M 274 1060 L 170 1060 L 170 956" fill="none" stroke="#f4f2ec" stroke-width="7" stroke-linecap="square" opacity="0.9"/><path d="M 1326 1060 L 1430 1060 L 1430 956" fill="none" stroke="#f4f2ec" stroke-width="7" stroke-linecap="square" opacity="0.9"/>
<rect x="34" y="154" width="1532" height="1132" fill="none" stroke="#f4f2ec" stroke-width="3" opacity="0.6"/>
</svg>