<svg xmlns="http://www.w3.org/2000/svg" viewBox="376 124.99 1344 1008" width="1600" height="1200" role="img" preserveAspectRatio="xMidYMid slice">
<defs><linearGradient id="sky" x1="0" y1="0" x2="0" y2="1">
<stop offset="0" stop-color="#e1e8e7"/><stop offset="1" stop-color="#c9d9cd"/>
</linearGradient></defs>
<rect x="-200" y="-200" width="2000" height="1600" fill="url(#sky)"/><ellipse cx="992" cy="560" rx="700" ry="330" fill="#d7e5da" opacity="0.5"/><rect x="-200" y="700" width="2000" height="700" fill="#94ab9a"/><rect x="-200" y="818" width="2000" height="92" fill="#adbcb1" opacity="0.75"/><line x1="-200" y1="818" x2="1800" y2="818" stroke="#3f5a55" stroke-width="2" opacity="0.2"/><line x1="-200" y1="910" x2="1800" y2="910" stroke="#3f5a55" stroke-width="2" opacity="0.2"/><g opacity="0.15" stroke="#3f5a55" stroke-width="1.4">
    <line x1="-300" y1="-200" x2="-300" y2="1400"/><line x1="-200" y1="-200" x2="-200" y2="1400"/><line x1="-100" y1="-200" x2="-100" y2="1400"/><line x1="0" y1="-200" x2="0" y2="1400"/><line x1="100" y1="-200" x2="100" y2="1400"/><line x1="200" y1="-200" x2="200" y2="1400"/><line x1="300" y1="-200" x2="300" y2="1400"/><line x1="400" y1="-200" x2="400" y2="1400"/><line x1="500" y1="-200" x2="500" y2="1400"/><line x1="600" y1="-200" x2="600" y2="1400"/><line x1="700" y1="-200" x2="700" y2="1400"/><line x1="800" y1="-200" x2="800" y2="1400"/><line x1="900" y1="-200" x2="900" y2="1400"/><line x1="1000" y1="-200" x2="1000" y2="1400"/><line x1="1100" y1="-200" x2="1100" y2="1400"/><line x1="1200" y1="-200" x2="1200" y2="1400"/><line x1="1300" y1="-200" x2="1300" y2="1400"/><line x1="1400" y1="-200" x2="1400" y2="1400"/><line x1="1500" y1="-200" x2="1500" y2="1400"/><line x1="1600" y1="-200" x2="1600" y2="1400"/><line x1="1700" y1="-200" x2="1700" y2="1400"/><line x1="1800" y1="-200" x2="1800" y2="1400"/><line x1="1900" y1="-200" x2="1900" y2="1400"/>
    <line x1="-200" y1="-200" x2="1800" y2="-200"/><line x1="-200" y1="-100" x2="1800" y2="-100"/><line x1="-200" y1="0" x2="1800" y2="0"/><line x1="-200" y1="100" x2="1800" y2="100"/><line x1="-200" y1="200" x2="1800" y2="200"/><line x1="-200" y1="300" x2="1800" y2="300"/><line x1="-200" y1="400" x2="1800" y2="400"/><line x1="-200" y1="500" x2="1800" y2="500"/><line x1="-200" y1="600" x2="1800" y2="600"/><line x1="-200" y1="700" x2="1800" y2="700"/><line x1="-200" y1="800" x2="1800" y2="800"/><line x1="-200" y1="900" x2="1800" y2="900"/><line x1="-200" y1="1000" x2="1800" y2="1000"/><line x1="-200" y1="1100" x2="1800" y2="1100"/><line x1="-200" y1="1200" x2="1800" y2="1200"/><line x1="-200" y1="1300" x2="1800" y2="1300"/><line x1="-200" y1="1400" x2="1800" y2="1400"/>
  </g><path d="M 61.98 700 Q 75.82 539.04 81.96 407.34 L 92.92 407.34 Q 91.77 539.04 81.92 700 Z" fill="#29423e" opacity="0.9"/><path d="M 87.44 407.34 Q -17.81 385.39 -103.92 442.91 Q -17.81 404.64 87.44 416.96 Z" fill="#29423e" opacity="0.82"/><path d="M 87.44 407.34 Q 0.33 370.79 -70.95 399.95 Q 0.33 389.63 87.44 416.76 Z" fill="#29423e" opacity="0.82"/><path d="M 87.44 407.34 Q 38.29 360.44 -1.92 369.52 Q 38.29 376.15 87.44 415.19 Z" fill="#29423e" opacity="0.82"/><path d="M 87.44 407.34 Q 87.44 356.71 87.44 358.55 Q 87.44 375.05 87.44 416.51 Z" fill="#29423e" opacity="0.82"/><path d="M 87.44 407.34 Q 136.59 360.44 176.8 369.52 Q 136.59 379.14 87.44 416.69 Z" fill="#29423e" opacity="0.82"/><path d="M 87.44 407.34 Q 174.55 370.79 245.83 399.95 Q 174.55 391.29 87.44 417.59 Z" fill="#29423e" opacity="0.82"/><path d="M 87.44 407.34 Q 192.69 385.39 278.81 442.91 Q 192.69 401.28 87.44 415.28 Z" fill="#29423e" opacity="0.82"/><ellipse cx="87.44" cy="413.34" rx="16" ry="12" fill="#29423e"/><path d="M 156.63 700 Q 164.27 484.16 145.66 307.57 L 158.53 307.57 Q 182.97 484.16 180.02 700 Z" fill="#29423e" opacity="0.9"/><path d="M 152.1 307.57 Q 52.4 286.78 -29.17 341.26 Q 52.4 301.98 152.1 315.17 Z" fill="#29423e" opacity="0.82"/><path d="M 152.1 307.57 Q 69.58 272.95 2.07 300.57 Q 69.58 292.64 152.1 317.41 Z" fill="#29423e" opacity="0.82"/><path d="M 152.1 307.57 Q 105.54 263.15 67.45 271.75 Q 105.54 283.61 152.1 317.8 Z" fill="#29423e" opacity="0.82"/><path d="M 152.1 307.57 Q 152.1 259.62 152.1 261.36 Q 152.1 278.98 152.1 317.25 Z" fill="#29423e" opacity="0.82"/><path d="M 152.1 307.57 Q 198.65 263.15 236.74 271.75 Q 198.65 281.51 152.1 316.75 Z" fill="#29423e" opacity="0.82"/><path d="M 152.1 307.57 Q 234.61 272.95 302.12 300.57 Q 234.61 292.57 152.1 317.38 Z" fill="#29423e" opacity="0.82"/><path d="M 152.1 307.57 Q 251.79 286.78 333.36 341.26 Q 251.79 305.39 152.1 316.88 Z" fill="#29423e" opacity="0.82"/><ellipse cx="152.1" cy="313.57" rx="16" ry="12" fill="#29423e"/><path d="M 236.44 700 Q 238.22 567.87 211.76 459.76 L 221.61 459.76 Q 252.55 567.87 254.35 700 Z" fill="#29423e" opacity="0.9"/><path d="M 216.69 459.76 Q 99 435.22 2.7 499.53 Q 99 455.76 216.69 470.03 Z" fill="#29423e" opacity="0.82"/><path d="M 216.69 459.76 Q 119.28 418.89 39.58 451.5 Q 119.28 434.69 216.69 467.66 Z" fill="#29423e" opacity="0.82"/><path d="M 216.69 459.76 Q 161.73 407.32 116.76 417.48 Q 161.73 424.82 216.69 468.51 Z" fill="#29423e" opacity="0.82"/><path d="M 216.69 459.76 Q 216.69 403.15 216.69 405.21 Q 216.69 420.7 216.69 468.53 Z" fill="#29423e" opacity="0.82"/><path d="M 216.69 459.76 Q 271.65 407.32 316.61 417.48 Q 271.65 426.83 216.69 469.51 Z" fill="#29423e" opacity="0.82"/><path d="M 216.69 459.76 Q 314.1 418.89 393.8 451.5 Q 314.1 435.59 216.69 468.11 Z" fill="#29423e" opacity="0.82"/><path d="M 216.69 459.76 Q 334.38 435.22 430.67 499.53 Q 334.38 452.72 216.69 468.51 Z" fill="#29423e" opacity="0.82"/><ellipse cx="216.69" cy="465.76" rx="16" ry="12" fill="#29423e"/><path d="M 1379.72 700 Q 1390.91 527.11 1394.73 385.65 L 1403.95 385.65 Q 1404.32 527.11 1396.48 700 Z" fill="#29423e" opacity="0.9"/><path d="M 1399.34 385.65 Q 1289.23 362.69 1199.13 422.86 Q 1289.23 381.33 1399.34 394.97 Z" fill="#29423e" opacity="0.82"/><path d="M 1399.34 385.65 Q 1308.2 347.41 1233.63 377.92 Q 1308.2 367 1399.34 395.45 Z" fill="#29423e" opacity="0.82"/><path d="M 1399.34 385.65 Q 1347.92 336.59 1305.85 346.09 Q 1347.92 354.53 1399.34 394.62 Z" fill="#29423e" opacity="0.82"/><path d="M 1399.34 385.65 Q 1399.34 332.68 1399.34 334.61 Q 1399.34 349.83 1399.34 394.22 Z" fill="#29423e" opacity="0.82"/><path d="M 1399.34 385.65 Q 1450.76 336.59 1492.83 346.09 Q 1450.76 355.62 1399.34 395.17 Z" fill="#29423e" opacity="0.82"/><path d="M 1399.34 385.65 Q 1490.48 347.41 1565.05 377.92 Q 1490.48 364.55 1399.34 394.22 Z" fill="#29423e" opacity="0.82"/><path d="M 1399.34 385.65 Q 1509.45 362.69 1599.55 422.86 Q 1509.45 378.91 1399.34 393.76 Z" fill="#29423e" opacity="0.82"/><ellipse cx="1399.34" cy="391.65" rx="16" ry="12" fill="#29423e"/><path d="M 1517.48 700 Q 1523.79 500.37 1510.24 337.05 L 1520.31 337.05 Q 1538.44 500.37 1535.79 700 Z" fill="#29423e" opacity="0.9"/><path d="M 1515.28 337.05 Q 1396.71 312.32 1299.7 377.11 Q 1396.71 329.41 1515.28 345.59 Z" fill="#29423e" opacity="0.82"/><path d="M 1515.28 337.05 Q 1417.14 295.87 1336.85 328.72 Q 1417.14 311.17 1515.28 344.69 Z" fill="#29423e" opacity="0.82"/><path d="M 1515.28 337.05 Q 1459.91 284.22 1414.61 294.45 Q 1459.91 300.89 1515.28 345.38 Z" fill="#29423e" opacity="0.82"/><path d="M 1515.28 337.05 Q 1515.28 280.01 1515.28 282.08 Q 1515.28 297.25 1515.28 345.66 Z" fill="#29423e" opacity="0.82"/><path d="M 1515.28 337.05 Q 1570.65 284.22 1615.95 294.45 Q 1570.65 301.69 1515.28 345.78 Z" fill="#29423e" opacity="0.82"/><path d="M 1515.28 337.05 Q 1613.41 295.87 1693.71 328.72 Q 1613.41 311.95 1515.28 345.09 Z" fill="#29423e" opacity="0.82"/><path d="M 1515.28 337.05 Q 1633.85 312.32 1730.86 377.11 Q 1633.85 331.87 1515.28 346.82 Z" fill="#29423e" opacity="0.82"/><ellipse cx="1515.28" cy="343.05" rx="16" ry="12" fill="#29423e"/><ellipse cx="824.35" cy="708" rx="639.51" ry="22" fill="#29423e" opacity="0.16"/><rect x="337.42" y="478.59" width="973.85" height="221.41" fill="#29423e" opacity="0.55"/><rect x="383.42" y="522.59" width="881.85" height="123.41" fill="#b5d4d3" opacity="0.78"/><rect x="328.42" y="478.59" width="18" height="221.41" fill="#29423e" opacity="0.9"/><rect x="523.19" y="478.59" width="18" height="221.41" fill="#29423e" opacity="0.9"/><rect x="717.96" y="478.59" width="18" height="221.41" fill="#29423e" opacity="0.9"/><rect x="912.73" y="478.59" width="18" height="221.41" fill="#29423e" opacity="0.9"/><rect x="1107.5" y="478.59" width="18" height="221.41" fill="#29423e" opacity="0.9"/><rect x="1302.27" y="478.59" width="18" height="221.41" fill="#29423e" opacity="0.9"/><rect x="231.42" y="424.59" width="1185.85" height="52" fill="#4a6963"/><rect x="231.42" y="476.59" width="1185.85" height="12" fill="#29423e" opacity="0.4"/><rect x="217.42" y="410.59" width="1213.85" height="16" fill="#72958e"/><rect x="240" y="840" width="1120" height="210" fill="#9fc5c6"/><rect x="240" y="840" width="1120" height="16" fill="#b5d4d3" opacity="0.9"/><rect x="383.42" y="874" width="881.85" height="72" fill="#b5d4d3" opacity="0.3"/><rect x="240" y="1050" width="1120" height="10" fill="#29423e" opacity="0.2"/>
<rect x="404.56" y="153.55" width="1286.88" height="950.88" fill="none" stroke="#f4f2ec" stroke-width="2.52" opacity="0.6"/>
</svg>