<svg xmlns="http://www.w3.org/2000/svg" viewBox="88 237.6 1088 816" width="1600" height="1200" role="img" preserveAspectRatio="xMidYMid slice">
<defs><linearGradient id="sky" x1="0" y1="0" x2="0" y2="1">
<stop offset="0" stop-color="#dfe6e6"/><stop offset="1" stop-color="#c6d7cd"/>
</linearGradient></defs>
<rect x="-200" y="-200" width="2000" height="1600" fill="url(#sky)"/><ellipse cx="992" cy="780" rx="700" ry="330" fill="#d7e5dc" opacity="0.5"/><rect x="-200" y="920" width="2000" height="480" fill="#96ac9f"/><rect x="-200" y="1038" width="2000" height="92" fill="#afbdb4" opacity="0.75"/><line x1="-200" y1="1038" x2="1800" y2="1038" stroke="#3f5a59" stroke-width="2" opacity="0.2"/><line x1="-200" y1="1130" x2="1800" y2="1130" stroke="#3f5a59" stroke-width="2" opacity="0.2"/><g opacity="0.15" stroke="#3f5a59" stroke-width="1.4">
    <line x1="-300" y1="-200" x2="-300" y2="1400"/><line x1="-200" y1="-200" x2="-200" y2="1400"/><line x1="-100" y1="-200" x2="-100" y2="1400"/><line x1="0" y1="-200" x2="0" y2="1400"/><line x1="100" y1="-200" x2="100" y2="1400"/><line x1="200" y1="-200" x2="200" y2="1400"/><line x1="300" y1="-200" x2="300" y2="1400"/><line x1="400" y1="-200" x2="400" y2="1400"/><line x1="500" y1="-200" x2="500" y2="1400"/><line x1="600" y1="-200" x2="600" y2="1400"/><line x1="700" y1="-200" x2="700" y2="1400"/><line x1="800" y1="-200" x2="800" y2="1400"/><line x1="900" y1="-200" x2="900" y2="1400"/><line x1="1000" y1="-200" x2="1000" y2="1400"/><line x1="1100" y1="-200" x2="1100" y2="1400"/><line x1="1200" y1="-200" x2="1200" y2="1400"/><line x1="1300" y1="-200" x2="1300" y2="1400"/><line x1="1400" y1="-200" x2="1400" y2="1400"/><line x1="1500" y1="-200" x2="1500" y2="1400"/><line x1="1600" y1="-200" x2="1600" y2="1400"/><line x1="1700" y1="-200" x2="1700" y2="1400"/><line x1="1800" y1="-200" x2="1800" y2="1400"/><line x1="1900" y1="-200" x2="1900" y2="1400"/>
    <line x1="-200" y1="-200" x2="1800" y2="-200"/><line x1="-200" y1="-100" x2="1800" y2="-100"/><line x1="-200" y1="0" x2="1800" y2="0"/><line x1="-200" y1="100" x2="1800" y2="100"/><line x1="-200" y1="200" x2="1800" y2="200"/><line x1="-200" y1="300" x2="1800" y2="300"/><line x1="-200" y1="400" x2="1800" y2="400"/><line x1="-200" y1="500" x2="1800" y2="500"/><line x1="-200" y1="600" x2="1800" y2="600"/><line x1="-200" y1="700" x2="1800" y2="700"/><line x1="-200" y1="800" x2="1800" y2="800"/><line x1="-200" y1="900" x2="1800" y2="900"/><line x1="-200" y1="1000" x2="1800" y2="1000"/><line x1="-200" y1="1100" x2="1800" y2="1100"/><line x1="-200" y1="1200" x2="1800" y2="1200"/><line x1="-200" y1="1300" x2="1800" y2="1300"/><line x1="-200" y1="1400" x2="1800" y2="1400"/>
  </g><ellipse cx="710" cy="928" rx="508.4" ry="22" fill="#294241" opacity="0.16"/><rect x="1280" y="170" width="40" height="750" fill="#294241"/><path d="M 1280 214 L 1320 260 M 1320 214 L 1280 260" stroke="#294241" stroke-width="5" opacity="0.7" fill="none"/><path d="M 1280 292.44 L 1320 338.44 M 1320 292.44 L 1280 338.44" stroke="#294241" stroke-width="5" opacity="0.7" fill="none"/><path d="M 1280 370.89 L 1320 416.89 M 1320 370.89 L 1280 416.89" stroke="#294241" stroke-width="5" opacity="0.7" fill="none"/><path d="M 1280 449.33 L 1320 495.33 M 1320 449.33 L 1280 495.33" stroke="#294241" stroke-width="5" opacity="0.7" fill="none"/><path d="M 1280 527.78 L 1320 573.78 M 1320 527.78 L 1280 573.78" stroke="#294241" stroke-width="5" opacity="0.7" fill="none"/><path d="M 1280 606.22 L 1320 652.22 M 1320 606.22 L 1280 652.22" stroke="#294241" stroke-width="5" opacity="0.7" fill="none"/><path d="M 1280 684.67 L 1320 730.67 M 1320 684.67 L 1280 730.67" stroke="#294241" stroke-width="5" opacity="0.7" fill="none"/><path d="M 1280 763.11 L 1320 809.11 M 1320 763.11 L 1280 809.11" stroke="#294241" stroke-width="5" opacity="0.7" fill="none"/><path d="M 1280 841.56 L 1320 887.56 M 1320 841.56 L 1280 887.56" stroke="#294241" stroke-width="5" opacity="0.7" fill="none"/><rect x="560" y="242" width="740" height="18" fill="#294241"/><rect x="1320" y="242" width="195" height="18" fill="#294241"/><rect x="1452" y="194" width="62" height="48" fill="#294241"/><rect x="1264" y="162" width="72" height="80" fill="#294241"/><line x1="820" y1="260" x2="820" y2="552" stroke="#294241" stroke-width="5"/><rect x="788" y="552" width="64" height="36" fill="#294241"/><rect x="278" y="296" width="864" height="22" fill="#4c6c6a"/><rect x="300" y="448" width="820" height="22" fill="#769796"/><rect x="300" y="600" width="820" height="22" fill="#769796"/><rect x="300" y="752" width="820" height="22" fill="#769796"/><rect x="300" y="904" width="820" height="22" fill="#769796"/><rect x="300" y="312" width="26" height="608" fill="#4c6c6a"/><rect x="498.5" y="312" width="26" height="608" fill="#4c6c6a"/><rect x="697" y="312" width="26" height="608" fill="#4c6c6a"/><rect x="895.5" y="312" width="26" height="608" fill="#4c6c6a"/><rect x="1094" y="312" width="26" height="608" fill="#4c6c6a"/><rect x="498.5" y="464" width="198.5" height="304" fill="#294241" opacity="0.55"/><path d="M 921.5 312 L 1094 464 M 1094 312 L 921.5 464" stroke="#294241" stroke-width="7" opacity="0.5" fill="none"/><path d="M 921.5 464 L 1094 616 M 1094 464 L 921.5 616" stroke="#294241" stroke-width="7" opacity="0.5" fill="none"/><path d="M 921.5 616 L 1094 768 M 1094 616 L 921.5 768" stroke="#294241" stroke-width="7" opacity="0.5" fill="none"/><path d="M 921.5 768 L 1094 920 M 1094 768 L 921.5 920" stroke="#294241" stroke-width="7" opacity="0.5" fill="none"/><rect x="-200" y="842" width="2000" height="78" fill="#a7b9b8"/><rect x="-200" y="842" width="2000" height="10" fill="#4c6c6a"/><rect x="-160" y="842" width="5" height="78" fill="#96ac9f" opacity="0.7"/><rect x="-10" y="842" width="5" height="78" fill="#96ac9f" opacity="0.7"/><rect x="140" y="842" width="5" height="78" fill="#96ac9f" opacity="0.7"/><rect x="290" y="842" width="5" height="78" fill="#96ac9f" opacity="0.7"/><rect x="440" y="842" width="5" height="78" fill="#96ac9f" opacity="0.7"/><rect x="590" y="842" width="5" height="78" fill="#96ac9f" opacity="0.7"/><rect x="740" y="842" width="5" height="78" fill="#96ac9f" opacity="0.7"/><rect x="890" y="842" width="5" height="78" fill="#96ac9f" opacity="0.7"/><rect x="1040" y="842" width="5" height="78" fill="#96ac9f" opacity="0.7"/><rect x="1190" y="842" width="5" height="78" fill="#96ac9f" opacity="0.7"/><rect x="1340" y="842" width="5" height="78" fill="#96ac9f" opacity="0.7"/><rect x="1490" y="842" width="5" height="78" fill="#96ac9f" opacity="0.7"/><rect x="-200" y="920" width="2000" height="12" fill="#294241" opacity="0.36"/>
<rect x="111.12" y="260.72" width="1041.76" height="769.76" fill="none" stroke="#f4f2ec" stroke-width="2.04" opacity="0.6"/>
</svg>